<svg width="408" height="410" viewBox="0 0 408 410" fill="none" xmlns="http://www.w3.org/2000/svg">
<g clip-path="url(#clip0_80_115)">
<path d="M190.654 0.320313C189.777 0.400383 186.988 0.68063 184.478 0.880805C126.591 6.12541 72.3691 37.513 38.0271 85.7553C18.904 112.579 6.67317 143.006 2.05175 175.234C0.418316 186.484 0.219116 189.807 0.219116 205.06C0.219116 220.313 0.418316 223.636 2.05175 234.886C13.1272 311.794 67.5883 376.411 141.451 400.352C154.678 404.635 168.622 407.558 184.478 409.319C190.654 410 217.346 410 223.522 409.319C250.892 406.277 274.078 399.471 296.946 387.74C300.452 385.939 301.13 385.458 300.651 385.058C300.333 384.818 285.393 364.68 267.465 340.339L234.876 296.1L194.04 235.367C171.57 201.977 153.085 174.673 152.925 174.673C152.766 174.633 152.607 201.617 152.527 234.566C152.407 292.257 152.368 294.579 151.65 295.94C150.615 297.902 149.818 298.702 148.145 299.583C146.87 300.224 145.754 300.344 139.738 300.344H132.846L131.013 299.183C129.818 298.422 128.942 297.421 128.344 296.26L127.507 294.459L127.587 214.188L127.707 133.878L128.942 132.316C129.579 131.475 130.934 130.395 131.89 129.874C133.523 129.073 134.161 128.993 141.053 128.993C149.18 128.993 150.535 129.314 152.646 131.636C153.244 132.276 175.355 165.746 201.809 206.061C228.262 246.376 264.437 301.425 282.206 328.448L314.476 377.572L316.109 376.491C330.571 367.042 345.87 353.591 357.981 339.578C383.757 309.832 400.371 273.56 405.948 234.886C407.582 223.636 407.781 220.313 407.781 205.06C407.781 189.807 407.582 186.484 405.948 175.234C394.873 98.3264 340.412 33.7096 266.549 9.76861C253.521 5.52488 239.657 2.60232 224.119 0.84077C220.295 0.440419 193.96 3.19481e-05 190.654 0.320313ZM274.078 124.189C275.991 125.15 277.544 126.992 278.102 128.913C278.421 129.954 278.501 152.214 278.421 202.378L278.301 274.361L265.672 254.904L253.003 235.447V183.121C253.003 149.291 253.162 130.274 253.401 129.354C254.039 127.112 255.433 125.35 257.346 124.309C258.979 123.468 259.577 123.388 265.831 123.388C271.728 123.388 272.764 123.468 274.078 124.189Z" fill="white"/>
<path d="M312.484 378.452C311.089 379.333 310.651 379.934 311.886 379.253C312.763 378.733 314.197 377.652 313.958 377.612C313.838 377.612 313.161 378.012 312.484 378.452ZM309.735 380.254C309.018 380.814 309.018 380.854 309.894 380.414C310.372 380.174 310.771 379.894 310.771 379.814C310.771 379.493 310.572 379.573 309.735 380.254ZM307.743 381.455C307.026 382.015 307.026 382.055 307.902 381.615C308.38 381.375 308.779 381.095 308.779 381.015C308.779 380.694 308.58 380.774 307.743 381.455ZM305.751 382.656C305.034 383.216 305.034 383.257 305.91 382.816C306.388 382.576 306.787 382.296 306.787 382.216C306.787 381.895 306.588 381.975 305.751 382.656ZM302.723 384.257C301.209 385.058 301.289 385.378 302.803 384.618C303.48 384.257 303.998 383.897 303.998 383.817C303.998 383.537 303.958 383.577 302.723 384.257Z" fill="white"/>
</g>
<defs>
<clipPath id="clip0_80_115">
<rect width="408" height="410" fill="white"/>
</clipPath>
</defs>
</svg>
